# xmcd
#
# Track frame offsets:
#	150
#	15075
#	34401
#	51579
#	67803
#	81453
#	96563
#	117191
#	127310
#	136718
#	154435
#	168369
#	183147
#	196054
#	208469
#
# Disc length: 2930
#
# Revision: 1
# Processed by: cddbd v1.5.2PL0 Copyright (c) Steve Scherf et al.
# Submitted via: kJams 2 (development) 2.0patch17
#
DISCID=d80b700f
DTITLE=Unknown Artist - CB Party Hits Vol. 1 – 8520–05
DYEAR=1999
DGENRE=Other
TTITLE0=Tim McGraw - I Like it , I love It
TTITLE1=Deana Carter - Strawberry Wine
TTITLE2=Tracy Byrd - I'm From the Country
TTITLE3=Neal McCoy - The Shake
TTITLE4=LeAnn Rimes - Blue
TTITLE5=Faith Hill - This Kiss
TTITLE6=Trisha Yearwood - How Do I Live
TTITLE7=Everly Brothers, The - Wake Up Little Susie
TTITLE8=Jerry Lee Lewis - Great Balls Of Fire
TTITLE9=Righteous Brothers, The - Unchained Melody
TTITLE10=Tokens - The Lion Sleeps Tonight
TTITLE11=Temtations - My Girl
TTITLE12=Ottis Redding - (Sittin' On) The Dock of The Bay
TTITLE13=Chubby Checker - The Twist
TTITLE14=Sam The Sham and The Pharaohs - Wooly Bully
EXTD=
EXTT0=
EXTT1=
EXTT2=
EXTT3=
EXTT4=
EXTT5=
EXTT6=
EXTT7=
EXTT8=
EXTT9=
EXTT10=
EXTT11=
EXTT12=
EXTT13=
EXTT14=
PLAYORDER=
